<?xml version="1.0" encoding="UTF-8" standalone="no"?>
<!-- Created with Inkscape (http://www.inkscape.org/) -->

<svg
   width="146.47943mm"
   height="111.79779mm"
   viewBox="0 0 146.47943 111.79779"
   version="1.1"
   id="svg1"
   xml:space="preserve"
   xmlns="http://www.w3.org/2000/svg"
   xmlns:svg="http://www.w3.org/2000/svg"><defs
     id="defs1" /><g
     id="layer1"
     transform="translate(-11.295174,-8.8805406)"><path
       fill="#40aa45"
       d="m 79.60794,120.33896 c -0.0265,-0.21961 -0.4736,-1.46844 -0.99219,-2.77813 -0.51858,-1.30704 -1.12712,-2.91571 -1.35202,-3.56923 -1.25941,-3.66712 -5.76527,-11.86127 -9.159866,-16.668752 -1.51606,-2.14048 -5.22552,-6.675438 -6.38969,-7.805208 -0.29898,-0.29104 -1.07421,-1.12448 -1.71979,-1.85208 -1.25412,-1.41023 -8.02746,-8.59896 -11.50673,-12.213166 -1.15358,-1.198563 -2.20662,-2.111375 -2.33891,-2.029354 -0.30957,0.1905 -2.61938,-2.061104 -2.4818,-2.420938 0.0582,-0.148166 -0.2487,-0.296333 -0.67998,-0.328083 l -0.78581,-0.05556 0.73554,0.981605 c 0.40482,0.542395 1.76742,2.235729 3.02948,3.762375 4.83659,5.860521 17.13971,21.650849 18.98121,24.360179 2.21985,3.267612 5.056186,7.821092 6.212416,9.982732 1.11654,2.07963 1.10331,2.09286 -0.70644,0.63765 -1.03188,-0.83344 -4.124856,-2.36802 -7.829016,-3.88673 -21.38627,-8.776272 -33.42217,-20.51054 -39.69808,-38.692708 -2.0029,-5.804958 -2.89984,-11.371791 -2.89984,-17.986375 v -4.1275 l 2.57969,0.182563 c 7.04585,0.492125 15.54956,3.339041 22.89175,7.659687 8.02481,4.722813 17.49954,13.805959 22.67744,21.738167 1.928806,2.952746 4.148656,7.659686 6.180656,13.096876 3.54277,9.482668 4.62492,14.52827 5.21229,24.34431 0.23284,3.89731 0.26194,9.43769 0.0397,7.66763 z m 10.81352,-3.2094 c -0.037,-0.40746 2.19869,-6.51933 3.26232,-8.9191 2.8522,-6.43732 4.81277,-9.017002 13.09422,-17.23761 9.51707,-9.44562 12.33488,-12.80848 16.02582,-19.129373 2.25689,-3.862916 3.34433,-6.394979 5.1435,-11.959166 1.56368,-4.836584 1.66952,-5.066771 2.81516,-6.103938 3.65919,-3.307292 11.83482,-6.715125 17.19792,-7.167562 l 1.86531,-0.15875 -0.0767,1.820333 c -0.29633,6.961187 -0.66675,12.104687 -0.96837,13.462 -0.93663,4.212167 -2.4765,8.569854 -4.74398,13.424958 -3.94758,8.445498 -9.81604,15.311438 -18.7034,21.883686 -4.064,3.005672 -9.94039,6.207122 -16.5391,9.009062 -3.33904,1.41817 -6.98235,3.24115 -8.86354,4.43177 -1.42875,0.90752 -1.44463,0.91017 -0.79375,0.17198 0.36512,-0.41539 3.16177,-3.27289 6.21771,-6.35529 10.71562,-10.80294 10.78441,-10.87967 18.42029,-21.00262 4.61433,-6.11717 6.42144,-8.725963 5.76791,-8.32115 -0.15875,0.0979 0.0317,-0.325438 0.41805,-0.941917 0.42598,-0.672042 0.61118,-1.211792 0.46566,-1.357312 -0.14552,-0.145521 -1.49754,1.203854 -3.39725,3.389312 -1.73302,1.997607 -3.39725,3.876147 -3.69093,4.175127 -0.29634,0.29898 -1.47903,1.55575 -2.62467,2.79135 -1.14829,1.23561 -6.26533,6.477 -11.36915,11.64167 -5.10381,5.167308 -10.2526,10.56217 -11.44058,11.98827 -1.73038,2.07962 -4.81806,6.45319 -7.15169,10.13619 -0.17462,0.27252 -0.32279,0.42068 -0.33073,0.32808 z m 28.02996,-5.94519 c -3.48985,-0.23812 -9.26042,-1.26471 -9.26042,-1.64571 0.003,-0.0979 1.04246,-0.58208 2.31511,-1.0742 6.05102,-2.34686 13.39585,-6.68073 18.33827,-10.824112 4.06665,-3.410478 9.59379,-9.331848 12.954,-13.887978 2.99773,-4.05871 3.05594,-4.11691 4.36033,-4.43177 1.56104,-0.37571 8.41375,-0.66146 9.77371,-0.40746 0.86783,0.16405 0.93133,0.23813 0.77523,0.8943 -0.96837,4.06929 -4.1275,11.36914 -6.51404,15.057428 -2.59556,4.01373 -6.74952,8.294692 -10.54365,10.863792 -3.33639,2.26219 -8.32114,4.25715 -12.40631,4.97153 -2.35479,0.4101 -7.3025,0.65616 -9.79223,0.48418 z m -72.628116,-0.79904 c -6.29973,-0.66146 -12.77144,-2.95539 -17.9414,-6.35529 -4.70164,-3.09563 -10.19969,-9.71815 -13.1445,-15.83531 -1.14829,-2.3839 -3.44223,-8.42698 -3.44223,-9.06727 0,-1.00542 11.86657,-0.55298 13.13657,0.50006 0.19843,0.16669 1.00806,1.22502 1.79916,2.35214 2.1299,3.04007 6.50346,8.45609 8.68363,10.75267 5.77321,6.085418 15.74535,12.66561 23.80721,15.71361 1.27264,0.48154 2.3151,0.94985 2.3151,1.0451 0,0.55827 -11.80571,1.25148 -15.21354,0.89429 z M 85.13509,100.47139 C 82.9655,95.542208 81.72461,84.3371 82.44428,76.156186 c 1.7092,-19.438938 13.66308,-37.914791 32.12835,-49.656999 2.91042,-1.852084 6.58019,-3.706813 7.82637,-3.955521 0.73555,-0.148167 0.82286,-0.06879 1.61396,1.500187 1.11654,2.211917 2.51354,6.537854 3.04271,9.421813 1.09802,5.971645 0.72761,14.430374 -0.92869,21.201061 -3.10885,12.702646 -11.45116,25.796873 -22.38639,35.136663 -3.82323,3.26761 -7.59354,6.381748 -10.16,8.397878 -2.08756,1.63777 -2.52677,1.886482 -2.59821,1.47108 -0.2249,-1.3335 1.94998,-10.996078 3.54542,-15.747998 2.56116,-7.633227 5.88433,-14.877519 12.99633,-28.339519 0.94192,-1.783291 1.61396,-3.254375 1.49225,-3.272895 -0.12171,-0.01588 -0.31221,-0.01588 -0.42069,0 -0.10848,0.01852 -0.19844,-0.103188 -0.19844,-0.264584 0,-0.206375 -0.1217,-0.195791 -0.39687,0.03175 -0.25135,0.209021 -0.39688,0.224896 -0.39688,0.04762 0,-0.153458 0.11907,-0.354541 0.26459,-0.4445 0.14552,-0.08996 0.26194,-0.304271 0.25929,-0.478896 -0.0106,-0.5715 -1.14035,1.021292 -5.96106,8.416396 -2.42888,3.725334 -5.42661,9.122834 -7.85548,14.155209 -4.572,9.464149 -6.24681,14.533569 -7.73113,23.412977 -0.38893,2.32569 -0.75935,4.278322 -0.82021,4.339172 -0.0609,0.0609 -0.34131,-0.41275 -0.62441,-1.05569 z M 76.84569,83.81587 C 76.6208,83.45869 75.25025,81.20444 73.80034,78.80202 l -2.63261,-4.365626 -0.8546,-3.802063 c -1.201206,-5.360458 -2.915706,-10.429875 -4.931826,-14.586479 -1.89971,-3.921125 -5.65679,-10.355791 -5.94519,-10.178521 -0.0979,0.06086 -0.39158,-0.121708 -0.64823,-0.404812 -0.25664,-0.283104 -0.56092,-0.457729 -0.67469,-0.388938 -0.11641,0.07144 -0.39687,-0.05821 -0.62706,-0.288395 -0.23019,-0.230188 -0.41804,-0.357188 -0.41804,-0.280459 0,0.07673 0.72231,1.722438 1.60867,3.656542 3.61685,7.918979 7.98247,19.01825 7.61999,19.380729 -0.0556,0.05556 -1.14035,-1.074208 -2.413,-2.513542 -3.69887,-4.17777 -10.82674,-10.101791 -17.85143,-14.835187 -1.48696,-1.000125 -2.80988,-2.026708 -2.94217,-2.283354 -0.13229,-0.254 -0.46302,-1.534584 -0.73819,-2.844271 -0.66675,-3.193521 -0.65881,-10.308166 0.0185,-13.753041 0.59796,-3.050646 2.03994,-7.65175 2.68023,-8.556625 0.0317,-0.04498 1.14565,0.280459 2.47386,0.724959 5.64091,1.889125 11.72104,5.423958 16.31685,9.48002 4.10369,3.624792 6.984996,7.458604 9.495896,12.633854 2.39977,4.950354 3.69887,9.376833 4.81277,16.404166 0.91016,5.733521 0.508,18.676933 -0.67734,21.883683 L 77.25842,84.4641 Z M 43.309764,71.642354 c 0,-0.153458 0.11906,-0.206375 0.26458,-0.116417 0.14552,0.08996 0.26458,0.216959 0.26458,0.280459 0,0.0635 -0.11906,0.116416 -0.26458,0.116416 -0.14552,0 -0.26458,-0.127 -0.26458,-0.280458 z M 79.29573,49.512604 c -1.3626,-2.153708 -3.59304,-5.677958 -4.95829,-7.834313 -3.58775,-5.65679 -3.6195,-5.744103 -3.63273,-9.707561 -0.0132,-3.833813 0.39688,-5.3975 2.45269,-9.392708 C 75.45663,18.1145 80.8065,11.714229 83.98944,9.6213748 l 1.12448,-0.740834 1.12448,0.762 c 1.9341,1.3123342 5.84729,5.4292502 7.39246,7.7761052 1.94998,2.960688 3.68564,6.482292 4.572,9.260417 0.84667,2.661709 1.20914,6.926792 0.67469,7.926917 -0.17992,0.338667 -2.13784,3.010958 -4.34975,5.937249 -2.20927,2.923646 -5.00857,6.723062 -6.21771,8.440208 -1.20915,1.717146 -2.22779,3.087688 -2.26484,3.042709 -0.10054,-0.119063 -0.36777,-5.087938 -0.5371,-10.00125 -0.1905,-5.513916 -0.39687,-7.540624 -0.67204,-6.614583 -0.13494,0.4445 -0.20638,0.508 -0.2249,0.1905 -0.0159,-0.259291 -0.20373,-0.53975 -0.42333,-0.624416 -0.23283,-0.08996 -0.39688,-0.486834 -0.39688,-0.960438 0,-3.754437 -0.98954,6.289145 -1.30439,13.221228 -0.13229,2.936875 -0.34661,5.532438 -0.4789,5.765271 -0.18256,0.330729 -0.78316,-0.439208 -2.71198,-3.489854 z"
       id="path1"
       style="stroke-width:0.264583" /></g></svg>
